<svg width="24" height="24" viewBox="0 0 24 24" fill="none" xmlns="http://www.w3.org/2000/svg">
<path d="M14.2814 6.85484L15.8157 5.56158C16.1993 5.23827 16.279 4.65836 15.995 4.23754L14.7696 2.42082C14.5903 2.15396 14.2964 2 13.9826 2H10.0224C9.70859 2 9.41469 2.15909 9.23537 2.42082L8.00996 4.23754C7.72603 4.65836 7.80573 5.23827 8.18929 5.56158L9.72354 6.85484C6.41594 7.86584 4 11.0271 4 14.7581C4 19.305 7.58655 23 12 23C16.4134 23 20 19.305 20 14.7581C20 11.0271 17.5791 7.87097 14.2765 6.85484H14.2814ZM10.5255 3.96554H13.4844L13.9178 4.61217L12 6.22361L10.0822 4.61217L10.5156 3.96554H10.5255ZM12.005 21.0293C8.64757 21.0293 5.91781 18.217 5.91781 14.7581C5.91781 11.2991 8.64757 8.4868 12.005 8.4868C15.3624 8.4868 18.0922 11.2991 18.0922 14.7581C18.0922 18.217 15.3624 21.0293 12.005 21.0293Z" fill="#43CEBA"/>
</svg>
