<svg width="24" height="24" viewBox="0 0 24 24" fill="none" xmlns="http://www.w3.org/2000/svg">
<path d="M11.7931 21C12.3667 16.1844 13.8677 13.9526 20 11.3492C20 11.3492 16.118 9.72822 14.431 7.73016C12.8528 5.86088 11.7931 2 11.7931 2C10.3195 7.23684 8.57085 9.42824 3 11.3492C8.03111 12.5138 10.2442 14.1622 11.7931 21Z" stroke="#43CEBA" stroke-width="0.75"/>
<path d="M16.5422 4.43483C17.1079 4.22244 17.5259 3.98197 17.85 3.66454C18.1786 3.34264 18.4016 2.95047 18.5895 2.45267C18.6115 2.50819 18.6358 2.56737 18.6623 2.62886C18.7996 2.94735 19.0019 3.34483 19.253 3.61088C19.5206 3.89455 19.9511 4.14236 20.3004 4.31568C20.4089 4.36949 20.5114 4.41698 20.6013 4.45699C19.8866 4.75358 19.4 5.04848 19.0692 5.4107C18.8144 5.68981 18.6584 6.00174 18.557 6.36757C18.357 5.78274 18.1116 5.36567 17.7786 5.05983C17.4485 4.75653 17.0432 4.57308 16.5422 4.43483Z" stroke="#B0B0B0" stroke-width="0.3"/>
</svg>
