<svg width="18" height="18" viewBox="0 0 18 18" fill="none" xmlns="http://www.w3.org/2000/svg">
<path d="M9.00037 0.200195C4.14517 0.200195 0.200369 4.145 0.200369 9.0002C0.200369 10.4202 0.563569 11.8106 1.22037 13.0674L0.211169 17.3074C0.195255 17.3739 0.19667 17.4434 0.215281 17.5093C0.233892 17.5751 0.269076 17.6351 0.31747 17.6834C0.365864 17.7318 0.42585 17.7669 0.491697 17.7855C0.557543 17.804 0.627048 17.8054 0.693569 17.7894L4.93357 16.7802C6.18997 17.437 7.58037 17.8002 9.00037 17.8002C13.8552 17.8002 17.8004 13.8558 17.8004 9.0002C17.8004 4.1446 13.856 0.200195 9.00037 0.200195ZM9.00037 1.0002C13.4236 1.0002 17.0004 4.5774 17.0004 9.0002C17.0004 13.423 13.4232 17.0002 9.00037 17.0002C7.65437 17.0002 6.32957 16.6602 5.14957 16.0122C5.06256 15.9645 4.96091 15.9508 4.86437 15.9738L1.14037 16.8602L2.02677 13.1362C2.04991 13.0397 2.03637 12.9381 1.98877 12.851C1.34059 11.671 1.00063 10.3465 1.00037 9.0002C1.00037 4.577 4.57757 1.0002 9.00037 1.0002Z" fill="#B0B0B0"/>
</svg>
