<svg width="25" height="24" viewBox="0 0 25 24" fill="none" xmlns="http://www.w3.org/2000/svg">
<path d="M12.0788 12.056C14.7176 12.056 16.8568 9.91682 16.8568 7.278C16.8568 4.63918 14.7176 2.5 12.0788 2.5C9.43996 2.5 7.30078 4.63918 7.30078 7.278C7.30078 9.91682 9.43996 12.056 12.0788 12.056Z" stroke="#43CEBA" stroke-width="1.5" stroke-linecap="round" stroke-linejoin="round"/>
<path fill-rule="evenodd" clip-rule="evenodd" d="M4.50002 18.7016C4.49875 18.3657 4.57387 18.0339 4.71971 17.7313C5.17738 16.816 6.468 16.3308 7.53893 16.1112C8.31129 15.9463 9.09432 15.8362 9.88218 15.7816C11.3409 15.6535 12.808 15.6535 14.2666 15.7816C15.0544 15.8369 15.8374 15.947 16.6099 16.1112C17.6808 16.3308 18.9714 16.7702 19.4291 17.7313C19.7224 18.3481 19.7224 19.0642 19.4291 19.681C18.9714 20.6421 17.6808 21.0814 16.6099 21.2919C15.8384 21.4636 15.0551 21.5768 14.2666 21.6306C13.0794 21.7313 11.8866 21.7496 10.6968 21.6855C10.4222 21.6855 10.1568 21.6855 9.88218 21.6306C9.09665 21.5775 8.31633 21.4642 7.54809 21.2919C6.468 21.0814 5.18653 20.6421 4.71971 19.681C4.57461 19.3749 4.49957 19.0403 4.50002 18.7016Z" stroke="#43CEBA" stroke-width="1.5" stroke-linecap="round" stroke-linejoin="round"/>
</svg>
